<svg xmlns="http://www.w3.org/2000/svg" xmlns:bx="https://boxy-svg.com" viewBox="98.41 116.54 318.72 325.86">
    <defs>
        <bx:export>
            <bx:file format="svg" href="#object-0" normalization="boxy-svg"></bx:file>
        </bx:export>
    </defs>
    <g transform="matrix(0.04573, 0, 0, -0.046494, 21.816158, 504.715393)" fill="#000000" stroke="none" style="">
        <path d="M3445 8339 c-317 -33 -616 -142 -890 -325 -401 -266 -697 -684 -819 -1156 -56 -216 -61 -260 -61 -533 0 -222 3 -263 23 -365 44 -220 91 -359 181 -538 87 -174 260 -411 395 -541 l45 -44 -82 -89 c-210 -229 -356 -472 -446 -743 -46 -138 -87 -326 -96 -435 -3 -41 -7 -100 -10 -130 -11 -144 28 -434 85 -632 201 -701 777 -1248 1493 -1418 629 -149 1338 47 1813 502 45 43 85 78 90 78 5 0 32 -23 59 -51 249 -257 603 -448 987 -533 429 -95 872 -41 1267 155 238 118 483 307 645 500 335 398 496 828 498 1329 1 192 -16 320 -67 504 -89 325 -259 626 -493 877 l-81 86 70 69 c415 408 628 972 589 1557 -43 634 -372 1210 -889 1555 -201 134 -473 247 -701 291 -434 83 -847 32 -1236 -154 -209 -100 -398 -232 -566 -397 l-90 -89 -107 103 c-186 181 -372 304 -624 413 -310 134 -655 188 -982 154z m520 -409 c285 -60 533 -184 775 -388 103 -87 1930 -1912 1930 -1928 0 -12 -118 -129 -124 -123 -3 2 -434 432 -958 955 -524 523 -984 975 -1023 1006 -194 154 -387 246 -626 300 -87 19 -133 23 -279 23 -193 0 -274 -11 -420 -57 -133 -42 -201 -72 -305 -133 -460 -270 -735 -780 -712 -1320 15 -331 119 -602 337 -874 43 -53 94 -112 114 -130 20 -19 35 -40 35 -45 -1 -6 -27 -35 -59 -64 l-57 -53 -66 68 c-243 253 -403 560 -463 888 -28 153 -26 464 5 605 47 218 125 405 246 584 67 100 245 291 346 372 224 178 494 294 779 334 112 15 411 4 525 -20z m2873 19 c282 -31 527 -127 762 -299 401 -295 645 -746 667 -1234 15 -334 -62 -640 -235 -931 -106 -178 -155 -230 -1172 -1246 -1121 -1120 -1054 -1043 -1054 -1194 -1 -72 3 -88 35 -155 102 -211 345 -377 613 -420 117 -19 311 -8 419 24 330 98 559 348 629 686 59 284 -37 595 -254 826 l-48 51 60 60 60 60 68 -71 c136 -143 245 -347 288 -538 24 -102 26 -127 21 -253 -4 -107 -11 -162 -31 -233 -95 -342 -360 -629 -687 -741 -272 -93 -579 -78 -833 42 -113 54 -189 105 -278 186 -248 229 -320 515 -184 732 19 29 462 480 1057 1077 756 758 1040 1048 1082 1108 116 165 193 342 239 545 30 138 33 434 5 574 -105 517 -462 931 -950 1099 -156 54 -256 69 -452 70 -203 1 -286 -12 -463 -70 -200 -65 -377 -175 -554 -343 l-99 -94 -62 59 c-34 33 -63 62 -65 65 -1 3 44 51 101 105 370 354 818 508 1315 453z m-2973 -574 c39 -7 93 -21 120 -30 85 -28 247 -112 320 -167 66 -50 982 -948 1675 -1642 l315 -316 -60 -60 -59 -60 -106 102 c-58 56 -334 330 -615 608 -1151 1141 -1195 1183 -1291 1246 -170 113 -308 156 -504 158 -188 1 -328 -39 -475 -135 -256 -167 -405 -444 -405 -753 0 -247 79 -451 250 -641 l70 -79 -55 -56 -55 -55 -66 65 c-158 157 -262 349 -305 565 -23 114 -18 351 9 459 76 302 286 561 576 708 112 56 208 83 366 102 55 6 218 -4 295 -19z m2895 15 c363 -38 693 -271 850 -602 173 -363 129 -771 -119 -1118 -45 -63 -320 -345 -1059 -1085 -702 -702 -1015 -1022 -1050 -1073 -97 -140 -142 -284 -142 -458 0 -135 26 -238 100 -389 70 -142 133 -229 250 -345 203 -200 467 -340 750 -395 116 -23 324 -30 445 -16 494 58 937 381 1149 836 86 184 126 361 133 580 8 253 -30 424 -147 660 -72 146 -137 241 -257 373 l-72 79 63 62 63 62 83 -88 c468 -499 584 -1176 306 -1785 -215 -471 -675 -843 -1161 -938 -414 -81 -862 3 -1210 227 -207 134 -420 358 -540 568 l-43 76 -41 -75 c-113 -206 -330 -433 -549 -574 -362 -233 -826 -309 -1250 -206 -285 70 -514 200 -746 424 -207 200 -357 444 -436 709 -64 218 -87 507 -56 718 42 286 169 561 363 791 36 43 486 501 1001 1020 l935 943 66 -65 65 -66 -354 -356 c-195 -196 -630 -632 -966 -968 -488 -489 -623 -630 -675 -703 -206 -297 -291 -599 -268 -952 32 -495 335 -956 782 -1192 204 -107 392 -157 622 -166 179 -6 333 16 500 71 261 88 509 261 680 474 163 203 239 403 238 627 -1 171 -52 332 -153 473 -20 29 -227 245 -460 479 l-422 426 61 60 62 61 420 -420 c423 -421 492 -496 553 -598 l33 -56 51 77 c40 61 274 301 1084 1116 765 769 1046 1059 1084 1115 58 85 104 189 135 307 29 110 29 307 0 417 -77 296 -256 508 -518 618 -119 50 -193 63 -343 63 -116 -1 -148 -5 -225 -27 -170 -50 -300 -125 -424 -245 l-60 -58 -61 62 -61 62 85 80 c181 172 387 272 618 302 91 12 124 12 238 1z m-2975 -570 c89 -23 192 -83 268 -156 l49 -47 -359 -362 c-197 -199 -363 -363 -369 -363 -17 -3 -114 106 -153 172 -151 253 -50 597 213 722 121 57 222 67 351 34z m3043 -10 c215 -75 366 -322 333 -547 -16 -109 -72 -222 -151 -307 l-64 -67 -363 363 c-200 199 -363 366 -363 370 0 4 35 37 78 73 84 71 155 111 235 131 73 19 216 11 295 -16z m-2001 -892 l63 -62 -928 -930 c-510 -512 -951 -962 -980 -1001 -67 -88 -135 -227 -164 -330 -18 -66 -22 -106 -22 -235 0 -140 3 -163 27 -243 97 -315 312 -533 614 -623 109 -32 297 -44 407 -24 278 49 518 215 618 426 29 61 33 79 33 154 -1 153 6 144 -463 606 l-407 402 64 66 64 67 400 -398 c282 -281 413 -419 447 -469 146 -222 103 -476 -122 -710 -136 -142 -315 -247 -513 -301 -91 -25 -116 -28 -270 -28 -146 0 -183 4 -258 23 -199 53 -346 134 -489 271 -154 147 -250 307 -305 510 -23 86 -26 115 -27 271 -1 162 1 182 27 275 35 128 109 279 187 384 39 53 380 402 970 995 500 501 919 924 930 939 12 15 24 27 28 27 4 0 35 -28 69 -62z m774 -1377 c-159 -163 -325 -331 -369 -374 l-79 -79 -371 374 -371 373 372 373 372 373 368 -372 367 -371 -289 -297z m-1859 -1123 l368 -373 -71 -66 c-110 -104 -215 -148 -354 -149 -237 -1 -449 162 -510 391 -18 68 -19 199 -1 264 21 79 69 165 133 237 32 37 60 67 62 67 3 1 171 -167 373 -371z m3347 190 c83 -168 82 -344 -2 -502 -41 -77 -147 -182 -221 -220 -156 -77 -335 -76 -487 5 -54 29 -179 132 -179 148 0 3 168 174 373 379 l372 373 56 -60 c32 -33 71 -88 88 -123z"
              style="fill: rgb(89, 10, 177);" id="object-0"></path>
    </g>
</svg>